<?xml version="1.0" encoding="utf-8"?>
<!-- Generator: Adobe Illustrator 23.0.3, SVG Export Plug-In . SVG Version: 6.00 Build 0)  -->
<svg version="1.1" xmlns="http://www.w3.org/2000/svg" xmlns:xlink="http://www.w3.org/1999/xlink" x="0px" y="0px"
	 viewBox="0 0 460 445" style="enable-background:new 0 0 460 445;" xml:space="preserve">
<style type="text/css">
	.st0{display:none;}
	.st1{display:inline;}
	.st2{fill:none;stroke:#000000;stroke-width:0.9306;stroke-miterlimit:10;}
	.st3{display:inline;fill:none;stroke:#FF0000;stroke-width:6;stroke-miterlimit:10;}
	.st4{fill:#121212;}
</style>
<g id="Layer_1" class="st0">
	<g class="st1">
		<polygon class="st2" points="1227.5,460.5 1747.11,760.5 1227.5,1060.5 707.89,760.5 		"/>
		<line class="st2" x1="782.12" y1="717.64" x2="1301.73" y2="1017.64"/>
		<line class="st2" x1="856.35" y1="674.79" x2="1375.96" y2="974.79"/>
		<line class="st2" x1="930.58" y1="631.93" x2="1450.19" y2="931.93"/>
		<line class="st2" x1="1004.81" y1="589.07" x2="1524.42" y2="889.07"/>
		<line class="st2" x1="1079.04" y1="546.21" x2="1598.65" y2="846.21"/>
		<line class="st2" x1="1153.27" y1="503.36" x2="1672.88" y2="803.36"/>
		<line class="st2" x1="1672.88" y1="717.64" x2="1153.27" y2="1017.64"/>
		<line class="st2" x1="1598.65" y1="674.79" x2="1079.04" y2="974.78"/>
		<line class="st2" x1="1524.42" y1="631.93" x2="1004.81" y2="931.93"/>
		<line class="st2" x1="1450.19" y1="589.07" x2="930.58" y2="889.07"/>
		<line class="st2" x1="1375.96" y1="546.22" x2="856.35" y2="846.21"/>
		<line class="st2" x1="1301.73" y1="503.36" x2="782.12" y2="803.36"/>
	</g>
</g>
<g id="Layer_2" class="st0">
	<polygon class="st3" points="1450,589 1227,461 1005,589 1079,632 1227,547 1302,589 1153,675 1302,761 1376,718 1302,675 	"/>
</g>
<g id="Layer_3" class="st0">
	<polyline class="st3" points="1302,761 1302,846 1376,804 1376,718 1450,675 1450,589 	"/>
	<line class="st3" x1="1227" y1="546" x2="1227" y2="632"/>
	<polyline class="st3" points="1153,675 1153,761 1302,846 	"/>
	<polyline class="st3" points="1005,589 1005,846 1079,889 1079,632 	"/>
</g>
<g id="Layer_4" class="st0">
	<polyline class="st3" points="1079,889 1153,846 1153,761 	"/>
</g>
<g id="Layer_5">
</g>
<g id="Layer_6">
</g>
<g id="Layer_7">
	<path class="st4" d="M229.49,0L0,132.32v265.65l81.5,47.36l81.5-47.36v-76.4l141.49,80.72L386,356.02v-86.05l74-43v-94.66L229.49,0
		z M229.51,17.3L437.5,136.69l-148.06,86.04l74.13,42.07l-59.13,35.16L170.5,222.65l149.04-86.02l-90.07-51.64L81.5,170.98
		l-59.03-34.3L229.51,17.3z M237,106.6l52.46,30.08L237,166.95V106.6z M15,389.34V149.68l59,34.28v239.65L15,389.34z M148,389.34
		l-59,34.28V183.97l133-77.28v68.93l-74,42.71V389.34z M163,235.64l134,77.34v67.76L163,304.3V235.64z M312,380.77v-67.85l59-35.08
		v69.45L312,380.77z M379.33,256.5l-59.77-33.92L445,149.69v68.65L379.33,256.5z"/>
</g>
<g id="Layer_8">
</g>
</svg>
